<svg xmlns="http://www.w3.org/2000/svg"><text x="5" y="35" fill="red" font-size="9"
             transform="rotate(90 5,35)">
             "Marks":
             </text><text x="5" y="75" fill="red" font-size="9"
             transform="rotate(90 5,75)">
             6
             </text><rect x="15" y="0.0"
       width="15" height="220.0"
       style="fill:green;opacity:0.6;stroke:black;
       stroke-width:1;" /><text x="18" y="227" fill="red" font-size="9"
             transform="rotate(60 18,227)">
             end
             </text><rect x="30" y="110.0"
       width="15" height="110.0"
       style="fill:green;opacity:0.6;stroke:black;
       stroke-width:1;" /><text x="33" y="227" fill="red" font-size="9"
             transform="rotate(60 33,227)">
             class
             </text><rect x="45" y="110.0"
       width="15" height="110.0"
       style="fill:green;opacity:0.6;stroke:black;
       stroke-width:1;" /><text x="48" y="227" fill="red" font-size="9"
             transform="rotate(60 48,227)">
             control
             </text><rect x="60" y="110.0"
       width="15" height="110.0"
       style="fill:green;opacity:0.6;stroke:black;
       stroke-width:1;" /><text x="63" y="227" fill="red" font-size="9"
             transform="rotate(60 63,227)">
             def
             </text><rect x="75" y="110.0"
       width="15" height="110.0"
       style="fill:green;opacity:0.6;stroke:black;
       stroke-width:1;" /><text x="78" y="227" fill="red" font-size="9"
             transform="rotate(60 78,227)">
             download
             </text><rect x="90" y="110.0"
       width="15" height="110.0"
       style="fill:green;opacity:0.6;stroke:black;
       stroke-width:1;" /><text x="93" y="227" fill="red" font-size="9"
             transform="rotate(60 93,227)">
             implementation
             </text><rect x="105" y="110.0"
       width="15" height="110.0"
       style="fill:green;opacity:0.6;stroke:black;
       stroke-width:1;" /><text x="108" y="227" fill="red" font-size="9"
             transform="rotate(60 108,227)">
             links
             </text><rect x="120" y="110.0"
       width="15" height="110.0"
       style="fill:green;opacity:0.6;stroke:black;
       stroke-width:1;" /><text x="123" y="227" fill="red" font-size="9"
             transform="rotate(60 123,227)">
             manager
             </text><rect x="135" y="110.0"
       width="15" height="110.0"
       style="fill:green;opacity:0.6;stroke:black;
       stroke-width:1;" /><text x="138" y="227" fill="red" font-size="9"
             transform="rotate(60 138,227)">
             oracle
             </text><rect x="150" y="110.0"
       width="15" height="110.0"
       style="fill:green;opacity:0.6;stroke:black;
       stroke-width:1;" /><text x="153" y="227" fill="red" font-size="9"
             transform="rotate(60 153,227)">
             oraclemanager
             </text><rect x="165" y="110.0"
       width="15" height="110.0"
       style="fill:green;opacity:0.6;stroke:black;
       stroke-width:1;" /><text x="168" y="227" fill="red" font-size="9"
             transform="rotate(60 168,227)">
             path
             </text><rect x="180" y="110.0"
       width="15" height="110.0"
       style="fill:green;opacity:0.6;stroke:black;
       stroke-width:1;" /><text x="183" y="227" fill="red" font-size="9"
             transform="rotate(60 183,227)">
             provide
             </text><rect x="195" y="110.0"
       width="15" height="110.0"
       style="fill:green;opacity:0.6;stroke:black;
       stroke-width:1;" /><text x="198" y="227" fill="red" font-size="9"
             transform="rotate(60 198,227)">
             relative
             </text><rect x="210" y="110.0"
       width="15" height="110.0"
       style="fill:green;opacity:0.6;stroke:black;
       stroke-width:1;" /><text x="213" y="227" fill="red" font-size="9"
             transform="rotate(60 213,227)">
             repository
             </text><rect x="225" y="110.0"
       width="15" height="110.0"
       style="fill:green;opacity:0.6;stroke:black;
       stroke-width:1;" /><text x="228" y="227" fill="red" font-size="9"
             transform="rotate(60 228,227)">
             require
             </text><rect x="240" y="110.0"
       width="15" height="110.0"
       style="fill:green;opacity:0.6;stroke:black;
       stroke-width:1;" /><text x="243" y="227" fill="red" font-size="9"
             transform="rotate(60 243,227)">
             source
             </text><rect x="255" y="110.0"
       width="15" height="110.0"
       style="fill:green;opacity:0.6;stroke:black;
       stroke-width:1;" /><text x="258" y="227" fill="red" font-size="9"
             transform="rotate(60 258,227)">
             sourcecontrolmanager
             </text></svg>